<svg role="img" viewBox="0 0 24 24" xmlns="http://www.w3.org/2000/svg"><title>Pipedrive</title><path d="M12.006 0C7.326 0 4.199 2.563 4.199 6.545c0 4.011 2.812 6.545 7.26 6.545h.66v5.088c0 .16.006.314.019.465l.006.054.003.028.009.081c.002.02.005.039.008.058l.01.066.013.076.012.061c.005.024.01.047.016.07l.014.057.02.072.017.055.023.069.02.055.026.066.024.054.028.063.027.054.03.06.03.053.033.057.033.051.035.054.035.049.038.051.038.047.04.048.04.044.042.045.043.042.044.042.044.039.047.04.046.037.049.037.048.034.051.035.05.031.053.032.052.029.055.028.054.026.057.025.056.023.058.021.058.019.06.017.06.015.06.013.062.011.062.009.063.007.063.005.064.003.064.001h.066l.064-.002.064-.004.063-.006.062-.008.062-.01.061-.012.06-.014.06-.016.058-.018.058-.02.057-.022.056-.024.054-.026.054-.028.052-.03.051-.032.05-.033.048-.035.047-.037.046-.038.044-.04.043-.041.042-.043.04-.044.039-.046.037-.047.036-.048.034-.05.033-.051.031-.052.03-.053.028-.054.026-.056.025-.056.023-.057.021-.058.019-.059.017-.06.015-.06.013-.061.011-.062.009-.062.007-.063.005-.064.003-.064.001-.064v-.066l-.001-.032V13.089h.66c4.448 0 7.26-2.534 7.26-6.545C19.813 2.563 16.686 0 12.006 0zm0 3.054c2.304 0 3.692 1.233 3.692 3.491 0 2.245-1.388 3.491-3.692 3.491h-.66V3.054h.66z"/></svg>